<?xml version="1.0" encoding="UTF-8"?>
<svg width="122px" height="96px" viewBox="0 0 50 50" version="1.1" xmlns="http://www.w3.org/2000/svg" xmlns:xlink="http://www.w3.org/1999/xlink">
    <title>Switch - blue white</title>
    <g id="Switch---blue-white" stroke="none" stroke-width="1" fill="none" fill-rule="evenodd">
        <g id="2" transform="translate(10.000000, 18.000000)" stroke="#00A1DE" stroke-width="1.2">
            <rect id="Rectangle" x="0" y="-2.32204828e-14" width="29.8787879" height="13.2794613" rx="1"></rect>
        </g>
        <polygon id="Rectangle-Copy-2" fill="#00A1DE" points="12.5 23.1252153 13.5837064 23.1252153 13.5837064 22.5 15.7511193 22.5 15.7511193 23.1252153 16.8348257 23.1252153 16.8348257 26.5638991 12.5 26.5638991"></polygon>
        <polygon id="Rectangle-Copy-2" fill="#00A1DE" points="19.1209209 23.1252153 20.2046273 23.1252153 20.2046273 22.5 22.3720402 22.5 22.3720402 23.1252153 23.4557466 23.1252153 23.4557466 26.5638991 19.1209209 26.5638991"></polygon>
        <polygon id="Rectangle-Copy-2" fill="#00A1DE" points="25.7418418 23.1252153 26.8255482 23.1252153 26.8255482 22.5 28.9929611 22.5 28.9929611 23.1252153 30.0766675 23.1252153 30.0766675 26.5638991 25.7418418 26.5638991"></polygon>
        <polygon id="Rectangle-Copy-2" fill="#00A1DE" points="32.3627627 23.1252153 33.4464691 23.1252153 33.4464691 22.5 35.613882 22.5 35.613882 23.1252153 36.6975884 23.1252153 36.6975884 26.5638991 32.3627627 26.5638991"></polygon>
    </g>
</svg>