<svg viewBox="0 0 50 50" version="1.1" xmlns="http://www.w3.org/2000/svg" xmlns:xlink="http://www.w3.org/1999/xlink">
	<g transform="translate(9.000000, 17.500000)" fill="currentColor">
		<path d="M29.8787879,0.4 C30.7624435,0.4 31.4787879,1.1163444 31.4787879,2 L31.4787879,2 L31.4787879,13.2794613 C31.4787879,14.1631169 30.7624435,14.8794613 29.8787879,14.8794613 L29.8787879,14.8794613 L2,14.8794613 C1.1163444,14.8794613 0.4,14.1631169 0.4,13.2794613 L0.4,13.2794613 L0.4,2 C0.4,1.1163444 1.1163444,0.4 2,0.4 L2,0.4 Z M29.8787879,1.6 L2,1.6 C1.7790861,1.6 1.6,1.7790861 1.6,2 L1.6,2 L1.6,13.2794613 C1.6,13.5003752 1.7790861,13.6794613 2,13.6794613 L2,13.6794613 L29.8787879,13.6794613 C30.0997018,13.6794613 30.2787879,13.5003752 30.2787879,13.2794613 L30.2787879,13.2794613 L30.2787879,2 C30.2787879,1.7790861 30.0997018,1.6 29.8787879,1.6 L29.8787879,1.6 Z M8.86276368,4.95985166 L8.862,6.678 L9.591,6.678 L9.59171761,4.95985166 L12.1956705,4.95985166 L12.195,6.678 L12.985,6.678 L12.9853977,4.95985166 L16.339394,4.95985166 L16.339,6.678 L17.197,6.678 L17.1979975,4.95985166 L20.3018105,4.95985166 L20.301,6.678 L20.845,6.678 L20.8454059,4.95985166 L23.7896891,4.95985166 L23.789,6.678 L24.756,6.678 L24.7561653,4.95985166 L27.8617507,4.95985166 L27.8617507,11.5401483 L4.01703713,11.5401483 L4.01703713,6.6789862 L5.826,6.678 L5.82630773,4.95985166 L8.86276368,4.95985166 Z M8.062,5.759 L6.626,5.759 L6.62630773,7.4789862 L4.817,7.478 L4.817,10.74 L27.061,10.74 L27.061,5.759 L25.556,5.759 L25.5561653,7.4789862 L22.9896891,7.4789862 L22.989,5.759 L21.645,5.759 L21.6454059,7.4789862 L19.5018105,7.4789862 L19.501,5.759 L17.997,5.759 L17.9979975,7.4789862 L15.539394,7.4789862 L15.539,5.759 L13.785,5.759 L13.7853977,7.4789862 L11.3956705,7.4789862 L11.395,5.759 L10.391,5.759 L10.3917176,7.4789862 L8.06276368,7.4789862 L8.062,5.759 Z" id="Combined-Shape"></path>
	</g>
</svg>